<svg width="48" height="48" viewBox="0 0 48 48" fill="none" xmlns="http://www.w3.org/2000/svg">
  <defs>
    <linearGradient id="goldGradient" x1="0%" y1="0%" x2="100%" y2="100%">
      <stop offset="0%" style="stop-color:#F5C842;stop-opacity:1" />
      <stop offset="50%" style="stop-color:#D4AF37;stop-opacity:1" />
      <stop offset="100%" style="stop-color:#B8960C;stop-opacity:1" />
    </linearGradient>
    <filter id="shadow" x="-20%" y="-20%" width="140%" height="140%">
      <feDropShadow dx="0" dy="2" stdDeviation="2" flood-color="#000" flood-opacity="0.15"/>
    </filter>
  </defs>
  <path d="M24 2L44 14V34L24 46L4 34V14L24 2Z" fill="url(#goldGradient)" filter="url(#shadow)"/>
  <path d="M24 6L40 16V32L24 42L8 32V16L24 6Z" fill="none" stroke="#1a1a1a" stroke-width="0.5" opacity="0.2"/>
  <path d="M14 16H22V19H17.5V22H21.5V25H17.5V29H22V32H14V16Z" fill="#1a1a1a"/>
  <path d="M26 16H34V19H29.5V29H34V32H26V16Z" fill="#1a1a1a"/>
  <path d="M26 19H29.5V22H26V19Z" fill="url(#goldGradient)"/>
  <path d="M26 25H29.5V29H26V25Z" fill="url(#goldGradient)"/>
  <path d="M35 22L38 24L35 26V22Z" fill="#1a1a1a" opacity="0.7"/>
</svg>
